<svg
        xmlns="http://www.w3.org/2000/svg"
        viewBox="0 0 318.89 229.15"
      >
        <defs>
          <style>
            .cls-1 {
              fill: #9293a0;
            }
            .cls-2 {
              fill: #6a6b72;
            }
            .cls-3 {
              fill: #fff;
            }
          </style>
        </defs>
        <g id="Layer_2" data-name="Layer 2">
          <g id="Layer_1-2" data-name="Layer 1">
            <path
              class="cls-1"
              d="M292.86 6.7a4.56 4.56 0 0 0-.21-1.19c.09.38.15.78.21 1.19ZM318.76 213.37 293.83 15.74c-.61-4.06-.64-6.76-1-9 .15 2.19-.89 5-2.07 9.1l-45.1 136.38 7.72 61.15c1.09 15.72 9.33 15.72 12.5 15.72h33.95c8.68 0 20.39 1.91 18.93-15.72ZM198.81 5.2c.79 2.34.71 5.72-.69 10.6l-47.07 142.26 6 55.42a38.9 38.9 0 0 0 2.53 10.64 19.33 19.33 0 0 1 .57-10.69l47-141.8L201 15.85c-.63-4.85-1.26-8.3-2.19-10.65Z"
            />
            <circle
              class="cls-1"
              cx="60.5"
              cy="72.48"
              r="30.25"
              transform="rotate(-45 60.502 72.48)"
            />
            <circle
              class="cls-1"
              cx="30.25"
              cy="156.76"
              r="30.25"
              transform="rotate(-13.28 30.243 156.8)"
            />
            <path
              class="cls-2"
              d="m300.63 69.68-6.75-53.83c-.54-4.16-.67-7-1.06-9.4.21 2.26-.66 5.27-1.83 9.35l-45.33 136.69 7.72 60.88a24.48 24.48 0 0 0 2.23 9.65 16.19 16.19 0 0 1 .74-9.69ZM292.82 6.45a5.54 5.54 0 0 0-.24-1.25c.09.41.17.8.24 1.25ZM198.81 5.2c.79 2.34.71 5.72-.69 10.6l-47.07 142.26 6 55.42a38.87 38.87 0 0 0 2.54 10.64 19.22 19.22 0 0 1 .56-10.69l47-141.81L201 15.85c-.63-4.91-1.26-8.3-2.19-10.65Z"
            />
            <path
              class="cls-3"
              d="M182.39.09h-33.95c-3.17 0-11.41 0-15.72 15.71L67.33 213.43c-5.65 15.72 7 15.72 15.72 15.72h34c8.68 0 10.82-1.85 15.72-15.72L198.11 15.8C203.17-1.81 191.07.09 182.39.09ZM275.22.09h-34c-3.17 0-11.41 0-15.72 15.71l-65.34 197.63c-5.65 15.72 7 15.72 15.72 15.72h34c8.68 0 10.82-1.85 16.86-19.32L292.08 12.2C296-1.81 283.9.09 275.22.09Z"
            />
          </g>
        </g>
      </svg>